<svg width="230" height="43" viewBox="0 0 230 43" fill="none" xmlns="http://www.w3.org/2000/svg">
<path d="M34.9875 18.6561C33.6932 19.8861 33.0464 21.5969 33.223 23.3231L33.1926 23.2944C33.3742 25.3258 32.5984 27.3295 31.0723 28.7711C29.5462 30.2126 27.4249 30.9453 25.2744 30.7738L25.3047 30.8025C22.7008 30.5736 20.2246 31.9115 19.1133 34.1475C18.0021 36.3836 18.4945 39.0378 20.3445 40.7837C22.1945 42.5296 25.0049 42.9923 27.3712 41.9407C29.7375 40.889 31.1516 38.5488 30.9069 36.0894L30.9389 36.1181C30.7574 34.0867 31.5331 32.083 33.0593 30.6415C34.5854 29.2 36.7066 28.4672 38.8572 28.6387L38.8252 28.61C41.6869 28.8531 44.3498 27.2049 45.2562 24.6294C46.1626 22.054 45.0745 19.2279 42.6283 17.8042C40.182 16.3805 37.0203 16.7332 34.9925 18.6561H34.9875Z" fill="#5454D4"/>
<path d="M22.5433 27.0453L22.5112 27.0166C24.3399 27.1906 26.1547 26.5798 27.4548 25.3527C28.7549 24.1256 29.4029 22.4119 29.22 20.6844L29.2521 20.7131C29.0705 18.6817 29.8463 16.678 31.3724 15.2365C32.8985 13.795 35.0198 13.0622 37.1704 13.2337L37.1383 13.205C39.7424 13.436 42.2202 12.0996 43.3331 9.86386C44.446 7.62808 43.9551 4.97316 42.1056 3.22619C40.2561 1.47922 37.4454 1.01545 35.0784 2.06669C32.7114 3.11793 31.2966 5.45838 31.5412 7.91815L31.5108 7.88787C31.693 9.91941 30.9174 11.9234 29.3912 13.3651C27.8649 14.8068 25.7433 15.5393 23.5925 15.3673L23.6229 15.3975C21.7942 15.2235 19.9795 15.8343 18.6794 17.0614C17.3793 18.2885 16.7313 20.0023 16.9141 21.7297L16.8838 21.701C17.0647 23.7323 16.2888 25.7356 14.7628 27.177C13.2368 28.6184 11.1159 29.3513 8.96549 29.1804L8.99586 29.2091C6.39175 28.9781 3.91397 30.3145 2.80104 32.5503C1.68811 34.7861 2.1791 37.441 4.02858 39.1879C5.87806 40.9349 8.68877 41.3987 11.0557 40.3475C13.4227 39.2962 14.8375 36.9558 14.593 34.496L14.625 34.5247C14.4435 32.4933 15.2192 30.4896 16.7453 29.0481C18.2714 27.6065 20.3927 26.8738 22.5433 27.0453Z" fill="#FF7143"/>
<path d="M11.2377 23.8473C12.5322 22.6175 13.1785 20.9064 13.0005 19.1803L13.0325 19.209C12.8509 17.177 13.627 15.1727 15.1539 13.731C16.6808 12.2894 18.803 11.5571 20.9542 11.7296L20.9221 11.7009C23.5253 11.9312 26.0019 10.595 27.1142 8.35989C28.2264 6.12482 27.7355 3.47095 25.8867 1.72463C24.0379 -0.0216979 21.2283 -0.485445 18.8621 0.565156C16.4958 1.61576 15.0811 3.95508 15.325 6.41399L15.2947 6.38531C15.4762 8.41671 14.7005 10.4204 13.1743 11.8619C11.6482 13.3034 9.52698 14.0362 7.37638 13.8647L7.40674 13.8934C4.5451 13.651 1.88279 15.2996 0.976899 17.8751C0.0710118 20.4505 1.15951 23.2763 3.60576 24.6997C6.05201 26.123 9.21345 25.7701 11.2411 23.8473H11.2377Z" fill="#5454D4"/>
<path d="M63.4926 7.95483H68.5026V30.9842H63.4926V7.95483Z" fill="#19191B"/>
<path fill-rule="evenodd" clip-rule="evenodd" d="M76.7794 15.3505C73.4731 16.6551 71.3257 19.7139 71.3401 23.0985C71.3227 25.3178 72.2508 27.4504 73.9156 29.0166C75.5803 30.5828 77.8418 31.4509 80.1912 31.4256C83.7744 31.4255 87.004 29.3849 88.3719 26.2567C89.7398 23.1284 88.976 19.5298 86.4373 17.1414C83.8985 14.7529 80.0857 14.0459 76.7794 15.3505ZM80.1201 19.5696C82.2282 19.5329 83.974 21.1075 84.0323 23.0984C84.0892 24.0853 83.7065 25.0498 82.9769 25.7583C82.2473 26.4669 81.2373 26.8549 80.1912 26.8285C78.0827 26.8286 76.3679 25.2239 76.3484 23.2324C76.3289 21.2408 78.0119 19.6064 80.1201 19.5696Z" fill="#19191B"/>
<path fill-rule="evenodd" clip-rule="evenodd" d="M109.01 30.1891V15.2111L104.133 15.208V16.8173C102.944 15.4423 101.134 14.6815 99.2565 14.7666C94.6758 14.903 91.0372 18.45 91.0372 22.779C91.0372 27.1079 94.6758 30.6549 99.2565 30.7914C101.134 30.8765 102.944 30.1157 104.133 28.7407V30.1827C104.217 31.1341 103.839 32.07 103.105 32.7264C102.371 33.3827 101.361 33.6885 100.36 33.5575C98.7761 33.7102 97.2585 32.9182 96.5524 31.5705L92.2778 33.9049C93.9502 36.4786 97.0045 37.9544 100.193 37.729C104.634 37.729 109.01 35.4887 109.01 30.1891ZM101.754 19.1359C103.261 19.7779 104.204 21.221 104.135 22.7813C104.166 23.7888 103.745 24.7618 102.975 25.46C102.206 26.1581 101.159 26.5163 100.095 26.4462C98.4416 26.4481 96.9532 25.5002 96.335 24.0518C95.7169 22.6034 96.0932 20.9455 97.2857 19.8638C98.4782 18.7821 100.247 18.494 101.754 19.1359Z" fill="#19191B"/>
<path fill-rule="evenodd" clip-rule="evenodd" d="M117.287 15.3505C113.98 16.6551 111.833 19.7139 111.847 23.0985C111.83 25.3178 112.758 27.4504 114.423 29.0166C116.088 30.5828 118.349 31.4509 120.699 31.4256C124.282 31.4255 127.511 29.3849 128.879 26.2567C130.247 23.1284 129.483 19.5298 126.945 17.1414C124.406 14.7529 120.593 14.0459 117.287 15.3505ZM120.627 19.5696C122.736 19.5329 124.481 21.1075 124.54 23.0984C124.596 24.0853 124.214 25.0498 123.484 25.7583C122.755 26.4669 121.745 26.8549 120.699 26.8285C118.59 26.8286 116.875 25.2239 116.856 23.2324C116.836 21.2408 118.519 19.6064 120.627 19.5696Z" fill="#19191B"/>
<path fill-rule="evenodd" clip-rule="evenodd" d="M133.742 8.36063C132.618 8.80012 131.886 9.83548 131.886 10.9839C131.902 12.5456 133.239 13.8078 134.892 13.8234C136.108 13.8234 137.204 13.1315 137.669 12.0705C138.135 11.0095 137.877 9.78821 137.018 8.97614C136.158 8.16407 134.865 7.92114 133.742 8.36063ZM137.404 15.2112H132.392L132.385 30.9858H137.404V15.2112Z" fill="#19191B"/>
<path fill-rule="evenodd" clip-rule="evenodd" d="M156.879 28.8299C158.377 27.2669 159.154 25.2041 159.037 23.0985C159.154 20.9925 158.378 18.929 156.88 17.3656C155.381 15.8021 153.284 14.8678 151.054 14.7698C149.174 14.6729 147.348 15.379 146.08 16.693V15.2112H141.069V37.294H146.08V29.5007C147.347 30.8157 149.174 31.5225 151.054 31.4256C153.284 31.3271 155.38 30.3929 156.879 28.8299ZM149.987 19.4389C152.169 19.4044 153.972 21.0379 154.026 23.0984C154.102 24.1223 153.711 25.1281 152.953 25.863C152.194 26.5979 151.139 26.9921 150.054 26.9464C147.872 26.9466 146.098 25.285 146.079 23.224C146.061 21.1629 147.805 19.4733 149.987 19.4389Z" fill="#19191B"/>
<path d="M174.497 26.2518C174.497 29.88 171.159 31.4256 167.552 31.4256C164.57 31.6807 161.725 30.1934 160.371 27.6715L164.711 25.3372C165.073 26.5112 166.254 27.2869 167.545 27.1983C168.746 27.1983 169.348 26.8509 169.348 26.2216C169.348 24.4848 161.132 25.401 161.132 19.9436C161.132 16.5034 164.205 14.7698 167.678 14.7698C170.338 14.6903 172.832 15.9833 174.19 18.1446L169.915 20.3212C169.532 19.4765 168.651 18.9301 167.678 18.9334C166.81 18.9334 166.275 19.252 166.275 19.8161C166.282 21.6151 174.497 20.4152 174.497 26.2518Z" fill="#19191B"/>
<path d="M192.798 15.2112V30.9858H187.788V29.5023C186.616 30.8302 184.84 31.5461 183.014 31.4272C179.64 31.4272 176.773 29.1566 176.773 24.8942V15.2112H181.783V24.2011C181.698 24.9615 181.972 25.7187 182.531 26.2712C183.091 26.8237 183.879 27.1156 184.687 27.0692C186.525 27.0692 187.793 26.0606 187.793 23.8203V15.216L192.798 15.2112Z" fill="#19191B"/>
<path d="M221.526 21.2995V30.9841H216.516V21.709C216.516 20.1315 215.715 19.1229 214.112 19.1229C212.442 19.1229 211.506 20.2271 211.506 22.0882V30.9841H206.497V21.709C206.497 20.1315 205.696 19.1229 204.092 19.1229C202.422 19.1229 201.487 20.2271 201.487 22.0882V30.9841H196.477V15.2095H201.487V16.6595C202.542 15.3524 204.228 14.6403 205.963 14.7682C207.706 14.6876 209.367 15.4776 210.337 16.8491C211.465 15.4154 213.294 14.6295 215.18 14.7682C219.014 14.7697 221.526 17.3558 221.526 21.2995Z" fill="#19191B"/>
<path d="M225.763 15.114C227.817 15.114 229.481 13.5417 229.481 11.6022C229.481 9.66264 227.817 8.09033 225.763 8.09033C223.71 8.09033 222.045 9.66264 222.045 11.6022C222.045 13.5417 223.71 15.114 225.763 15.114Z" fill="#19191B"/>
</svg>
